<svg xmlns="http://www.w3.org/2000/svg" version="1.1" viewBox="0 0 287 287"><defs><style type="text/css">@-moz-keyframes DASH3{0%{stroke-dashoffset:800}80%{stroke-dashoffset:0;fill-opacity:0}}#alice-svg-logo{stroke:#17a6b0;fill:#17a6b0;fill-opacity:0;stroke-width:1;stroke-dasharray:800;stroke-dashoffset:800}</style></defs><g id="Artboard" fill="currentColor" fill-rule="evenodd" stroke="true" stroke-width="1"><g><path id="alice-svg-logo" fill="currentColor" fill-rule="nonzero" d="M205.818465,183.24 L200.188465,183.47 C200.188465,183.47 185.338465,200.53 163.078465,207.72 C163.078465,207.72 167.618465,208 169.928465,208 L169.928465,208.01 L204.308465,207.83 C213.458465,207.49 218.758465,201.77 218.508465,195.03 C218.268465,188.3 212.548465,182.99 205.818465,183.24 Z M189.858465,183.89 C192.378465,181.44 194.758465,178.84 196.968465,176.1 L197.258465,175.67 C204.938465,165.66 209.498465,153.12 209.498465,139.52 C209.498465,106.71 182.938465,80 150.148465,80 C117.368465,80 90.7684655,106.7 90.7684655,139.52 C90.7684655,152.966667 95.1413659,165.09 103.887167,175.89 C104.227167,176.32 104.577167,176.74 104.937167,177.16 C105.467167,177.79 126.528465,179.78 141.328465,177.16 C140.878465,176.92 140.438465,176.68 139.998465,176.43 C132.538465,172.2 126.188465,166.52 121.428465,159.8 C121.428465,159.8 121.358465,159.71 121.358465,159.69 C117.278465,153.98 115.218465,146.96 115.218465,139.41 C115.218465,120.14 130.848465,104.51 150.138465,104.51 C169.418465,104.51 185.058465,120.13 185.058465,139.41 C185.058465,145.93 182.158465,154.7 178.818465,159.77 C172.088465,169.28 161.848465,176.71 150.118465,180.87 C150.118465,180.87 150.118465,180.87 150.118465,180.87 C150.118465,180.87 137.518465,186.15 110.718465,183.81 L110.558465,183.8 C110.548465,183.8 110.538465,183.8 110.518465,183.8 L93.7084655,183.13 C86.9784655,182.88 81.2584655,188.18 81.0084655,194.92 C80.7584655,201.66 86.0584655,207.38 95.2084655,207.72 L130.438465,207.9 L130.438465,207.89 C137.068465,207.89 143.658465,207.1 149.858465,205.67 C149.898465,205.66 149.958465,205.65 150.028465,205.64 C150.038465,205.64 150.048465,205.64 150.068465,205.63 C150.108465,205.62 150.158465,205.61 150.208465,205.6 C150.228465,205.6 150.248465,205.59 150.258465,205.59 L150.318465,205.58 C153.438465,204.94 172.228465,200.55 189.808465,183.89 L189.858465,183.89 Z"/></g></g></svg>